<svg version="1.2" xmlns="http://www.w3.org/2000/svg" viewBox="0 0 1526 1602" width="1526" height="1602">
	<title>maersk-svg</title>
	<style>
		.s0 { fill: #42b0d5 } 
		.s1 { fill: #ffffff } 
	</style>
	<g id="Large---1280px-(Max-Width)">
		<g id="IGN---Transparent">
			<g id="IGN">
				<g id="Logo">
					<g id="Star">
						<path id="Shape" class="s0" d="m183.5 0h1158.7c101.5 0 183.8 81.8 183.8 182.7v1236c0 101-82.3 182.8-183.8 182.8h-1158.7c-101.4 0-183.5-81.7-183.5-182.5v-1236c-0.2-48.4 19.1-95 53.5-129.4 34.4-34.3 81.2-53.6 130-53.6z"/>
						<path id="Shape" class="s1" d="m1441.3 963.2l-0.3 1.5h-483.2l107.7 466.1-1.4 0.9-301.3-374.1-301.2 374.1-1.2-0.6 107.4-466.4h-482.9l-0.6-1.5 435.3-207.4-301.2-374.1 0.9-1.2 435.2 207.5 107.4-466.1h1.8l107.4 466.1 435.3-207.5 0.9 1.2-301.2 374.1z"/>
					</g>
				</g>
			</g>
		</g>
	</g>
</svg>